<svg width="19" height="19" xmlns="http://www.w3.org/2000/svg"><g fill="#FFF" fill-rule="nonzero"><path d="M2.517 2.432l-.212-.001-2.221-.008v-1.5L2.31.93h.213l1.43.007.632.003.613.003.12.6c.036.186.21 1.428.5 3.55h13.004l-2.516 8.424H5.441l-.087-.65-.063-.477a4267.33 4267.33 0 0 0-.683-5.07l-.014-.099a864.017 864.017 0 0 0-.657-4.784l-1.42-.006zM6.081 7.02l.013.099a3803.29 3803.29 0 0 1 .66 4.898h8.436l1.62-5.423H6.023l.058.426z"/><path d="M6.787 18.364a2.822 2.822 0 0 1-2.818-2.827c0-1.56 1.261-2.827 2.818-2.827a2.822 2.822 0 0 1 2.818 2.827c0 1.56-1.26 2.827-2.818 2.827zm0-1.5c.727 0 1.318-.593 1.318-1.327 0-.733-.59-1.327-1.318-1.327-.727 0-1.318.594-1.318 1.327 0 .734.59 1.327 1.318 1.327zM15.06 18.364a2.822 2.822 0 0 1-2.819-2.827c0-1.56 1.261-2.827 2.818-2.827a2.822 2.822 0 0 1 2.818 2.827c0 1.56-1.26 2.827-2.818 2.827zm0-1.5c.726 0 1.317-.593 1.317-1.327 0-.733-.59-1.327-1.318-1.327-.727 0-1.318.594-1.318 1.327 0 .734.591 1.327 1.318 1.327z"/></g></svg>