<?xml version="1.0" encoding="UTF-8"?>
<svg width="20px" height="21px" viewBox="0 0 20 21" version="1.1" xmlns="http://www.w3.org/2000/svg" xmlns:xlink="http://www.w3.org/1999/xlink">
    <!-- Generator: Sketch 51 (57462) - http://www.bohemiancoding.com/sketch -->
    <title>Shape</title>
    <desc>Created with Sketch.</desc>
    <defs></defs>
    <g id="Page-1" stroke="none" stroke-width="1" fill="none" fill-rule="evenodd">
        <path d="M19,10.9 C18.9,10.9 18.9,10.8 18.9,10.8 C18.3,9 17.8,7.3 17.2,5.5 L16.7,3.8 C17.1,3.7 17.3,3.3 17.2,2.9 C17.1,2.5 16.8,2.2 16.3,2.2 L10.8,2.2 L10.8,1.8 C10.8,1.5 10.8,1.3 10.8,1 C10.8,0.6 10.6,0.3 10.2,0.2 C9.9,0.1 9.7,0.2 9.5,0.3 C9.3,0.5 9.2,0.7 9.2,1 C9.2,1.3 9.2,1.7 9.2,2 L9.2,2.2 L7.5,2.2 L6.5,2.2 C5.5,2.2 4.6,2.2 3.6,2.2 C3.2,2.2 2.8,2.5 2.8,2.9 C2.7,3.3 2.9,3.7 3.3,3.8 L3.1,4.5 C2.4,6.6 1.8,8.7 1.1,10.9 C1.1,10.9 1.1,10.9 1,10.9 C0.6,11.1 0.5,11.4 0.5,11.7 C0.5,12 0.5,12.3 0.6,12.6 C1,14.4 2.8,15.7 4.6,15.5 C6.6,15.3 8,13.7 8,11.8 C8,11.3 7.7,11.1 7.6,11 C7.5,11 7.5,11 7.5,10.8 L5.4,3.9 L9.1,3.9 L9.1,15.7 C7.4,16.1 6.3,17.5 6.2,19.2 C6.2,19.5 6.3,19.8 6.4,19.9 C6.6,20.1 6.8,20.2 7.1,20.2 C8.1,20.2 9.1,20.2 10.1,20.2 C11,20.2 11.9,20.2 12.8,20.2 C13.1,20.2 13.3,20.1 13.5,19.9 C13.7,19.7 13.7,19.5 13.7,19.2 C13.6,18.1 13.2,17.1 12.3,16.4 C11.9,16 11.3,15.8 10.7,15.6 L10.7,3.9 L14.4,3.9 C13.7,6.2 13,8.6 12.2,10.9 C12.2,10.9 12.2,10.9 12.2,10.9 C11.8,11.1 11.7,11.4 11.7,11.7 C11.7,11.9 11.7,12.1 11.7,12.3 C12.1,14.4 13.9,15.7 16.1,15.4 C17.9,15.1 19.3,13.5 19.3,11.8 C19.4,11.3 19.3,11 19,10.9 Z M12,18.4 L8,18.4 C8.2,17.7 9.1,17.1 10,17.1 C10,17.1 10,17.1 10,17.1 C10.9,17.1 11.8,17.7 12,18.4 Z M17.6,12.4 C17.3,13.1 16.5,13.7 15.7,13.7 C15.7,13.7 15.7,13.7 15.7,13.7 C14.8,13.7 14,13.1 13.7,12.4 L17.6,12.4 Z M14.1,10.7 L15.6,5.8 L17.1,10.7 L14.1,10.7 Z M2.4,12.4 L6.3,12.4 C6,13.2 5.2,13.7 4.3,13.7 C4.3,13.7 4.3,13.7 4.3,13.7 C3.5,13.7 2.7,13.1 2.4,12.4 Z M2.9,10.7 L4.4,5.8 L5.9,10.7 L2.9,10.7 Z" id="Shape" fill="#BFBFBF" fill-rule="nonzero"></path>
    </g>
</svg>