<svg width="19" height="17" xmlns="http://www.w3.org/2000/svg"><path d="M16.969 5.082c0-1.75-1.365-3.082-3.203-3.082a3.742 3.742 0 0 0-2.745 1.25L9.51 4.995 7.998 3.25A3.742 3.742 0 0 0 5.253 2C3.415 2 2.05 3.333 2.05 5.082c0 2.174 1.563 4.03 7.443 9.111 5.913-5.08 7.476-6.937 7.476-9.111zM9.509 1.94L10.673.933A5.74 5.74 0 0 1 13.766 0C16.7 0 18.97 2.217 18.97 5.082c0 3.51-3.216 6.375-8.135 10.625L9.51 17l-1.325-1.293C3.266 11.457.05 8.592.05 5.082.05 2.217 2.32 0 5.253 0c1.09 0 2.18.34 3.094.933L9.51 1.94z" fill="#FF4040" fill-rule="nonzero"/></svg>